<svg xmlns="http://www.w3.org/2000/svg" viewBox="0 0 486.11 286.23"><title>MusicLovers</title><polygon points="52.95 145.98 42.93 153.85 95.89 202.51 100.18 191.77 100.9 178.89 67.26 148.12 52.95 145.98" style="fill:#24cfd3"/><polygon points="213.24 104.52 210.38 83.03 203.82 79.75 180.32 46.51 147.41 19.32 98.75 0 27.19 26.48 0 60.82 10.02 125.94 42.93 198.93 48.66 201.79 50.02 197.18 75.85 210.38 88.02 201.79 41.5 159.57 38.37 164.5 17.89 127.37 9.3 66.55 38.64 43.65 103.04 20.75 145.26 25.05 175.32 50.81 187.8 68.5 187.31 67.9 177.09 67.9 187.48 97.11 203.94 119.04 216.82 129.65 221.83 122.43 213.24 104.52"/><polygon points="181.76 95.89 173.88 72.99 165.3 78.71 169.59 104.47 186.76 131.67 201.79 140.25 210.38 128.8 196.78 118.78 181.76 95.89" style="fill:#24cfd3"/><polygon points="44.45 214.93 73.75 277.77 100.92 263.4 137.4 188.23 163.87 147.42 180.33 153.14 186.77 226.13 213.24 161.72 236.14 162.44 235.42 91.59 261.9 145.26 257.61 80.86 288.38 145.26 301.97 133.81 287.66 120.93 281.94 82.29 291.24 74.42 316.28 76.57 338.47 99.47 362.08 61.54 382.12 50.09 396.43 72.99 387.13 107.34 403.58 100.18 406.29 41.5 421.88 108.77 421.88 75.65 429.82 86.58 486.11 67.98 431.25 92.31 429.94 148.12 410.68 81.58 408.56 105.19 382.82 115.21 372.81 144.55 355.64 172.45 324.87 152.42 306.98 138.11 288.38 154.56 268.34 125.94 270.49 178.89 243.29 123.79 244.01 176.03 219.68 173.17 187.48 237.57 178.89 236.85 173.88 160.29 164.58 157.43 143.12 190.34 107.34 268.34 69.41 286.23 39.36 216.1 44.45 214.93"/><polygon points="50.81 212.53 32.92 211.81 33.63 198.21 54.38 207.52 50.81 212.53"/><polygon points="289.81 87.3 294.1 120.93 309.84 132.38 352.06 163.87 365.66 142.4 378.54 109.48 390.7 75.14 379.97 57.96 367.09 67.26 348.49 111.63 335.6 106.62 313.42 83.01 296.25 80.86 289.81 87.3" style="fill:#941800;stroke:#fff;stroke-miterlimit:10;stroke-width:2px"/><polygon points="234.81 180.96 239.87 181.29 245.94 124.65 264.48 162.08 270.55 125.67 289.77 161.06 296.85 160.39 267.18 90.6 261.45 139.15 245.27 108.13 238.86 109.48 234.81 180.96" style="fill:#24cfd3"/></svg>